<svg xmlns="http://www.w3.org/2000/svg" width="29" height="34" viewBox="0 0 29 34">
    <g fill="#FFF" fill-rule="evenodd">
        <path fill-rule="nonzero" d="M14.493 3.905l-7.67 7.836c-4.264 4.352-4.262 11.41 0 15.753a10.706 10.706 0 0 0 15.359-.005c4.26-4.347 4.257-11.404-.005-15.748l-7.684-7.836zm1.07-3.193l8.755 8.928c5.407 5.51 5.41 14.435.007 19.949a13.706 13.706 0 0 1-19.643.006c-5.407-5.51-5.41-14.435-.007-19.948L13.42.713a1.5 1.5 0 0 1 2.143-.001z"/>
        <path d="M11.14 4.295l2.138-2.102c2.236 2.003 3.472 4.345 3.472 6.842v3.632a1.5 1.5 0 0 1-3 0V9.035c0-1.571-.837-3.15-2.498-4.63a1.517 1.517 0 0 1-.112-.11z"/>
        <path fill-rule="nonzero" d="M17.5 21.354v-3.266c0-1.842-1.715-3.398-3.9-3.398-1.19 0-2.1.825-2.1 1.766v4.898c0 .94.91 1.765 2.1 1.765h1.8c1.19 0 2.1-.825 2.1-1.765zm3 0c0 2.666-2.314 4.765-5.1 4.765h-1.8c-2.786 0-5.1-2.099-5.1-4.765v-4.898c0-2.666 2.314-4.766 5.1-4.766 3.78 0 6.9 2.83 6.9 6.398v3.266z"/>
    </g>
</svg>
