<svg xmlns="http://www.w3.org/2000/svg" width="182" height="44" viewBox="0 0 182 44">
    <g fill="#FF4365" fill-rule="evenodd">
        <path fill-rule="nonzero" d="M18.99 4.835L8.754 15.131c-5.671 5.697-5.668 14.923 0 20.61 5.664 5.682 14.84 5.678 20.5-.007 5.665-5.69 5.662-14.916-.007-20.603L18.991 4.835zM20.408.59L32.08 12.307c7.223 7.247 7.227 18.997.009 26.249-7.223 7.255-18.941 7.26-26.169.008-7.223-7.247-7.227-18.997-.009-26.248L17.571.59a2 2 0 0 1 2.836-.001z"/>
        <path d="M15.382 6.159l3.014-2.64C20.726 5.924 22 8.654 22 11.547V15a2 2 0 1 1-4 0v-3.453c0-1.817-.876-3.646-2.618-5.388z"/>
        <path fill-rule="nonzero" d="M23 27.714V23.43C23 21.036 20.72 19 17.8 19c-1.594 0-2.8 1.077-2.8 2.286v6.428C15 28.923 16.206 30 17.8 30h2.4c1.594 0 2.8-1.077 2.8-2.286zm4 0C27 31.24 23.908 34 20.2 34h-2.4c-3.708 0-6.8-2.76-6.8-6.286v-6.428C11 17.76 14.092 15 17.8 15c5.034 0 9.2 3.72 9.2 8.429v4.285z"/>
        <path d="M73.83 21.98c0 3.02-.504 5.653-1.512 7.898-1.007 2.244-2.547 3.993-4.617 5.244C65.63 36.374 63.035 37 59.915 37c-3.175 0-5.784-.626-7.827-1.878-2.043-1.251-3.569-3.006-4.576-5.265C46.504 27.6 46 24.96 46 21.94c0-2.993.504-5.612 1.512-7.857 1.007-2.245 2.54-3.987 4.596-5.225C54.165 7.62 56.781 7 59.956 7c3.12 0 5.708.619 7.765 1.857 2.057 1.238 3.59 2.98 4.597 5.225 1.008 2.245 1.512 4.877 1.512 7.898zm-22.24 0c0 3.292.67 5.877 2.01 7.755 1.338 1.877 3.444 2.816 6.315 2.816 2.954 0 5.08-.939 6.378-2.816 1.297-1.878 1.946-4.463 1.946-7.755 0-3.293-.649-5.878-1.946-7.756-1.298-1.877-3.41-2.816-6.337-2.816-2.899 0-5.018.939-6.357 2.816-1.339 1.878-2.008 4.463-2.008 7.756zM77.29 36.592V7.449h5.3v24.735h12.342v4.408H77.289zm41.04 0l-2.691-7.714h-11.14l-2.651 7.714h-5.632l10.85-29.265h6.046l10.85 29.265h-5.631zm-4.058-12.204l-2.568-7.51c-.11-.354-.276-.864-.497-1.531a44.184 44.184 0 0 1-.62-2.04c-.194-.695-.36-1.273-.498-1.736-.138.572-.31 1.211-.517 1.919-.208.707-.4 1.374-.58 2-.18.626-.325 1.088-.435 1.388l-2.61 7.51h8.325zm17.1 12.204h-5.218V7.449h16.773v4.367H131.37v8.572h10.768v4.367H131.37v11.837zm25.95 0h-12.424v-2.98l3.562-1.306v-20.53l-3.562-1.347v-2.98h12.424v2.98l-3.561 1.347v20.53l3.561 1.306v2.98zm16.19-25.143c-2.679 0-4.763.946-6.254 2.837-1.491 1.89-2.237 4.483-2.237 7.775 0 3.32.69 5.905 2.071 7.755 1.38 1.85 3.506 2.776 6.378 2.776 1.242 0 2.464-.13 3.665-.388a32.596 32.596 0 0 0 3.706-1.04v4.448c-1.214.49-2.436.844-3.665 1.061-1.228.218-2.643.327-4.245.327-3.037 0-5.549-.619-7.537-1.857-1.988-1.238-3.465-2.98-4.431-5.225-.966-2.245-1.45-4.877-1.45-7.898 0-2.938.539-5.53 1.616-7.775 1.076-2.245 2.657-4.007 4.741-5.286 2.085-1.279 4.632-1.918 7.641-1.918 1.491 0 2.961.163 4.41.49 1.45.326 2.81.802 4.08 1.428l-1.822 4.286A35.571 35.571 0 0 0 176.927 12a10.88 10.88 0 0 0-3.417-.551z"/>
    </g>
</svg>
