<svg xmlns="http://www.w3.org/2000/svg" width="136" height="30" viewBox="0 0 136 30">
    <path fill="#FF4365" fill-rule="evenodd" d="M27.83 14.98c0 3.02-.504 5.653-1.512 7.898-1.007 2.244-2.547 3.993-4.617 5.244C19.63 29.374 17.035 30 13.915 30c-3.175 0-5.784-.626-7.827-1.878-2.043-1.251-3.569-3.006-4.576-5.265C.504 20.6 0 17.96 0 14.94c0-2.993.504-5.612 1.512-7.857 1.007-2.245 2.54-3.987 4.596-5.225C8.165.62 10.781 0 13.956 0c3.12 0 5.708.619 7.765 1.857 2.057 1.238 3.59 2.98 4.597 5.225 1.008 2.245 1.512 4.877 1.512 7.898zm-22.24 0c0 3.292.67 5.877 2.01 7.755 1.338 1.877 3.444 2.816 6.315 2.816 2.954 0 5.08-.939 6.378-2.816 1.297-1.878 1.946-4.463 1.946-7.755 0-3.293-.649-5.878-1.946-7.756-1.298-1.877-3.41-2.816-6.337-2.816-2.899 0-5.018.939-6.357 2.816-1.339 1.878-2.008 4.463-2.008 7.756zM31.29 29.592V.449h5.3v24.735h12.342v4.408H31.289zm41.04 0l-2.691-7.714h-11.14l-2.651 7.714h-5.632L61.065.327h6.046l10.85 29.265H72.33zm-4.058-12.204l-2.568-7.51c-.11-.354-.276-.864-.497-1.531a44.184 44.184 0 0 1-.62-2.04c-.194-.695-.36-1.273-.498-1.736-.138.572-.31 1.211-.517 1.919-.208.707-.4 1.374-.58 2-.18.626-.325 1.088-.435 1.388l-2.61 7.51h8.325zm17.1 12.204h-5.218V.449h16.773v4.367H85.37v8.572H96.14v4.367H85.37v11.837zm25.95 0H98.897v-2.98l3.562-1.306V4.776l-3.562-1.347V.449h12.424v2.98l-3.561 1.347v20.53l3.561 1.306v2.98zm16.19-25.143c-2.679 0-4.763.946-6.254 2.837-1.491 1.89-2.237 4.483-2.237 7.775 0 3.32.69 5.905 2.071 7.755 1.38 1.85 3.506 2.776 6.378 2.776 1.242 0 2.464-.13 3.665-.388a32.596 32.596 0 0 0 3.706-1.04v4.448c-1.214.49-2.436.844-3.665 1.061-1.228.218-2.643.327-4.245.327-3.037 0-5.549-.619-7.537-1.857-1.988-1.238-3.465-2.98-4.431-5.225-.966-2.245-1.45-4.877-1.45-7.898 0-2.938.539-5.53 1.616-7.775 1.076-2.245 2.657-4.007 4.741-5.286C121.954.68 124.501.041 127.51.041c1.491 0 2.961.163 4.41.49 1.45.326 2.81.802 4.08 1.428l-1.822 4.286A35.571 35.571 0 0 0 130.927 5a10.88 10.88 0 0 0-3.417-.551z"/>
</svg>
