<?xml version="1.0" encoding="UTF-8"?>
<svg width="7px" height="12px" viewBox="0 0 7 12" version="1.1" xmlns="http://www.w3.org/2000/svg" xmlns:xlink="http://www.w3.org/1999/xlink">
    <!-- Generator: sketchtool 51.2 (57519) - http://www.bohemiancoding.com/sketch -->
    <title>E2D09EDD-052A-421A-B6E4-4390A420966A</title>
    <desc>Created with sketchtool.</desc>
    <defs></defs>
    <g id="Symbols" stroke="none" stroke-width="1" fill="none" fill-rule="evenodd">
        <g id="Card/-Location" transform="translate(0.000000, -5.000000)" fill="#1A181B" fill-rule="nonzero">
            <g id="icons8-map_pin" transform="translate(0.000000, 5.000000)">
                <path d="M3.5,0 C1.572265,0 0,1.64062435 0,3.65217391 C0,5.48641043 1.308595,7.00068 3,7.25543478 L3,12 L4,12 L4,7.25543478 C5.691405,7.00067948 7,5.48641565 7,3.65217391 C7,1.64062435 5.427735,0 3.5,0 Z M3.5,1.04347826 C4.88672,1.04347826 6,2.20516174 6,3.65217391 C6,5.09918609 4.88672,6.26086957 3.5,6.26086957 C2.11328,6.26086957 1,5.09918609 1,3.65217391 C1,2.20516174 2.11328,1.04347826 3.5,1.04347826 Z M3.5,1.56521739 C2.40039,1.56521739 1.5,2.50475478 1.5,3.65217391 L2.5,3.65217391 C2.5,3.06929217 2.9414065,2.60869565 3.5,2.60869565 L3.5,1.56521739 Z" id="Shape"></path>
            </g>
        </g>
    </g>
</svg>