<?xml version="1.0" encoding="UTF-8"?>
<svg width="24px" height="24px" viewBox="0 0 24 24" version="1.1" xmlns="http://www.w3.org/2000/svg" xmlns:xlink="http://www.w3.org/1999/xlink">
    <!-- Generator: sketchtool 51.2 (57519) - http://www.bohemiancoding.com/sketch -->
    <title>D39DD77A-320C-46F6-BE78-E272D61AE1DC</title>
    <desc>Created with sketchtool.</desc>
    <defs></defs>
    <g id="Symbols" stroke="none" stroke-width="1" fill="none" fill-rule="evenodd">
        <g id="Icons/Black-Icons/Verified-Green" fill="#2EC4B6" fill-rule="nonzero">
            <g id="Verified-Green">
                <path d="M12,0 C10.32812,0 8.85547,0.828125 7.94922,2.09375 C7.632814,2.03125 7.316407,2 7.000001,2 C5.718751,2 4.441411,2.488281 3.464841,3.46484 C2.246091,4.68359 1.789061,6.375 2.089841,7.94921 C0.828121,8.85546 1e-06,10.32812 1e-06,11.99999 C1e-06,13.67187 0.828126,15.14452 2.093751,16.05077 C1.789064,17.62499 2.246095,19.31639 3.464841,20.53515 C4.441403,21.511713 5.718751,21.99999 7.000001,21.99999 C7.316407,21.99999 7.63672,21.96874 7.94922,21.90624 C8.85547,23.17186 10.32813,23.99999 12,23.99999 C13.67188,23.99999 15.14453,23.171865 16.05078,21.90624 C16.367187,21.96874 16.683593,21.99999 16.999999,21.99999 C18.281249,21.99999 19.558589,21.511709 20.535159,20.53515 C21.753909,19.3164 22.210939,17.62499 21.910159,16.05077 C23.171879,15.14452 23.999999,13.67186 23.999999,11.99999 C23.999999,10.32811 23.171874,8.85546 21.906249,7.94921 C22.210937,6.37499 21.753905,4.68359 20.535159,3.46484 C19.558597,2.488277 18.281249,2 16.999999,2 C16.683593,2 16.36328,2.03125 16.05078,2.09375 C15.14453,0.82813 13.67187,8.8817842e-16 12,0 Z M12,2 C12.96875,2 13.85547,2.460938 14.42969,3.25781 L15.175783,4.29687 L16.429693,4.054683 C16.617193,4.019526 16.812505,3.999995 17.000005,3.999995 C17.804693,3.999995 18.554695,4.312495 19.121095,4.878901 C19.82422,5.582026 20.132815,6.589841 19.945314,7.570311 L19.703126,8.828121 L20.742186,9.574215 C21.542967,10.148434 21.999996,11.031245 21.999996,11.999995 C21.999996,12.968745 21.539059,13.855465 20.738276,14.429685 L19.703116,15.175778 L19.945304,16.429688 C20.132804,17.410156 19.82421,18.417968 19.121085,19.121098 C18.554679,19.687504 17.804675,20.000004 16.999995,20.000004 C16.812495,20.000004 16.617183,19.980473 16.429683,19.945317 L15.175773,19.703129 L14.42968,20.742189 C13.855461,21.54297 12.96874,21.999999 11.99999,21.999999 C11.03124,21.999999 10.14452,21.539062 9.5703,20.738279 L8.824206,19.703119 L7.570296,19.945307 C7.382796,19.980463 7.187483,19.999994 6.999983,19.999994 C6.195296,19.999994 5.445293,19.687494 4.878893,19.121088 C4.175768,18.417963 3.867173,17.410148 4.054675,16.429678 L4.296862,15.171868 L3.257802,14.425774 C2.460927,13.851556 1.999992,12.968744 1.999992,11.999994 C1.999992,11.031244 2.46093,10.144524 3.257802,9.570304 L4.296862,8.82421 L4.054675,7.5703 C3.867175,6.589831 4.175768,5.58202 4.878893,4.87889 C5.4453,4.312484 6.195303,3.999984 6.999983,3.999984 C7.187483,3.999984 7.382796,4.019515 7.570296,4.054672 L8.824206,4.296859 L9.5703,3.257799 C10.144518,2.457017 11.03124,1.999989 11.99999,1.999989 L12,2 Z M15.5625,9 L11,13.5625 L8.4375,11 L7,12.4375 L10.28125,15.71875 L11,16.40625 L11.71875,15.71875 L17,10.4375 L15.5625,9 Z" id="Shape"></path>
            </g>
        </g>
    </g>
</svg>