<svg xmlns="http://www.w3.org/2000/svg" width="29" height="28" viewBox="0 0 29 28">
    <path fill="#1A181B" fill-rule="nonzero" d="M3 0C1.355 0 0 1.355 0 3v3h18V3c0-.566.434-1 1-1 .566 0 1 .434 1 1v9.063a8.035 8.035 0 0 0-4 1.718V12H8v2h7.719A7.968 7.968 0 0 0 13 20c0 .695.113 1.355.281 2H6c-.566 0-1-.434-1-1V7H3v14c0 1.645 1.355 3 3 3h8.094c1.386 2.387 3.957 4 6.906 4 4.406 0 8-3.594 8-8 0-4.066-3.066-7.438-7-7.938V3c0-1.645-1.355-3-3-3H3zm0 2h13.188A2.95 2.95 0 0 0 16 3v1H2V3c0-.566.434-1 1-1zm5 6v2h8V8H8zm13 6c3.324 0 6 2.676 6 6s-2.676 6-6 6-6-2.676-6-6 2.676-6 6-6zM8 16v2h5v-2H8zm12 0v3h-3v2h3v3h2v-3h3v-2h-3v-3h-2z"/>
</svg>
