<svg xmlns="http://www.w3.org/2000/svg" width="24" height="25" viewBox="0 0 24 25">
    <path fill="#1A181B" fill-rule="nonzero" d="M12 0C9 0 6.594 1.094 6.594 1.094l-.969.406.469.938 1.593 3.156C5.556 6.852 0 10.704 0 17c0 2.953.957 5.195 3.031 6.437C5.105 24.68 8.011 25 12 25c3.988 0 6.895-.32 8.969-1.563C23.043 22.195 24 19.953 24 17c0-4.11-2.398-7.188-4.656-9.188 1.945.79 2.906 1.875 2.906 1.875l1.5-1.375s-2.55-2.695-7.188-3.218l1.344-2.657.469-.937-.969-.406S15 0 12 0zm0 2c1.574 0 2.766.293 3.594.563L14.375 5h-4.75L8.406 2.562C9.234 2.293 10.426 2 12 2zM9.312 7h5.376C14.934 7.129 22 10.855 22 17c0 2.57-.598 3.84-2.063 4.719C18.474 22.598 15.864 23 12 23c-3.863 0-6.473-.402-7.938-1.281C2.599 20.839 2 19.57 2 17c0-6.145 7.066-9.871 7.313-10zM11 9v1.188c-1.156.421-2 1.527-2 2.812 0 .832.46 1.543.969 1.969.508.426 1.094.683 1.594.937s.945.489 1.187.688c.242.199.25.254.25.406 0 .523-.453 1-1 1-.566 0-1-.434-1-1H9c0 1.293.844 2.395 2 2.813V21h2v-1.188c1.16-.421 2-1.53 2-2.812 0-.832-.492-1.516-1-1.938-.508-.421-1.063-.687-1.563-.937s-.914-.484-1.156-.688C11.04 13.235 11 13.168 11 13c0-.54.445-1 1-1 .566 0 1 .434 1 1h2c0-1.293-.844-2.395-2-2.813V9h-2z"/>
</svg>
