<?xml version="1.0" encoding="UTF-8"?>
<svg width="22px" height="22px" viewBox="0 0 22 22" version="1.1" xmlns="http://www.w3.org/2000/svg" xmlns:xlink="http://www.w3.org/1999/xlink">
    <!-- Generator: sketchtool 51.2 (57519) - http://www.bohemiancoding.com/sketch -->
    <title>A3371423-08B6-4D3E-9751-1568C641C4A8</title>
    <desc>Created with sketchtool.</desc>
    <defs></defs>
    <g id="Symbols" stroke="none" stroke-width="1" fill="none" fill-rule="evenodd">
        <g id="Icons/Black-Icons/Facebook-black" fill="#1A181B" fill-rule="nonzero">
            <g id="Facebook-Black">
                <path d="M2,0 C0.90625,0 0,0.90625 0,2 L0,20 C0,21.09375 0.90625,22 2,22 L20,22 C21.09375,22 22,21.09375 22,20 L22,2 C22,0.90625 21.09375,0 20,0 L2,0 Z M2,2 L20,2 L20,20 L14.8125,20 L14.8125,13.25 L17.40625,13.25 L17.78125,10.25 L14.8125,10.25 L14.8125,8.3125 C14.8125,7.4375 15.027344,6.84375 16.28125,6.84375 L17.90625,6.84375 L17.90625,4.125 C17.628906,4.089844 16.66797,4.03125 15.5625,4.03125 C13.25781,4.03125 11.6875,5.41797 11.6875,8 L11.6875,10.25 L9.0625,10.25 L9.0625,13.25 L11.6875,13.25 L11.6875,20 L2,20 L2,2 Z" id="Shape"></path>
            </g>
        </g>
    </g>
</svg>