<svg xmlns="http://www.w3.org/2000/svg" width="28" height="20" viewBox="0 0 28 20">
    <path fill="#1A181B" fill-rule="nonzero" d="M3 0C1.355 0 0 1.355 0 3v14c0 1.645 1.355 3 3 3h22c1.645 0 3-1.355 3-3V3c0-1.645-1.355-3-3-3H3zm0 2h6v3h2V2h14c.566 0 1 .434 1 1v6h-8v2h8v6c0 .566-.434 1-1 1H11v-5H9v5H3c-.566 0-1-.434-1-1V3c0-.566.434-1 1-1zm3 3C4.355 5 3 6.355 3 8s1.355 3 3 3h.48c-.671.703-1.246 1.621-1.464 2.82l1.968.36c.352-1.93 2.336-2.844 3-3.102.657.277 2.688 1.262 3.032 3.11l1.968-.375c-.226-1.188-.812-2.11-1.5-2.813H14c1.645 0 3-1.355 3-3s-1.355-3-3-3c-1.75 0-2.93 1.316-3.707 2.426-.11.156-.2.3-.293.453a8.823 8.823 0 0 0-.293-.453C8.93 6.316 7.75 5 6 5zm0 2c.625 0 1.445.684 2.074 1.574.145.211.117.227.235.426H6c-.566 0-1-.434-1-1 0-.566.434-1 1-1zm8 0c.566 0 1 .434 1 1 0 .566-.434 1-1 1h-2.309c.118-.2.09-.215.235-.426C12.555 7.684 13.375 7 14 7z"/>
</svg>
