<svg xmlns="http://www.w3.org/2000/svg" width="24" height="20" viewBox="0 0 24 20">
    <path fill="#FFF" fill-rule="nonzero" d="M1 0C.45 0 0 .45 0 1s.45 1 1 1h2.219l2.625 10.5c.222.89 1.02 1.5 1.937 1.5h11.47c.901 0 1.667-.598 1.905-1.469L23.75 3H7l.5 2h13.656l-1.906 7H7.781L5.156 1.5A1.983 1.983 0 0 0 3.22 0H1zm17 14c-1.645 0-3 1.355-3 3s1.355 3 3 3 3-1.355 3-3-1.355-3-3-3zm-9 0c-1.645 0-3 1.355-3 3s1.355 3 3 3 3-1.355 3-3-1.355-3-3-3zm0 2c.563 0 1 .438 1 1 0 .563-.438 1-1 1-.563 0-1-.438-1-1 0-.563.438-1 1-1zm9 0c.563 0 1 .438 1 1 0 .563-.438 1-1 1-.563 0-1-.438-1-1 0-.563.438-1 1-1z"/>
</svg>
