<?xml version="1.0" encoding="UTF-8"?>
<svg width="22px" height="22px" viewBox="0 0 22 22" version="1.1" xmlns="http://www.w3.org/2000/svg" xmlns:xlink="http://www.w3.org/1999/xlink">
    <!-- Generator: sketchtool 51.2 (57519) - http://www.bohemiancoding.com/sketch -->
    <title>F62F8716-B7F3-46B3-9D67-7DFA1F9330CB</title>
    <desc>Created with sketchtool.</desc>
    <defs></defs>
    <g id="Symbols" stroke="none" stroke-width="1" fill="none" fill-rule="evenodd">
        <g id="Icons/Black-Icons/Instagram" fill="#1A181B" fill-rule="nonzero">
            <g id="Instagram-Black">
                <path d="M6.4688,0 C2.91802,0 5e-05,2.91406 5e-05,6.46875 L5e-05,15.53125 C5e-05,19.08203 2.91411,22 6.4688,22 L15.5313,22 C19.08208,22 22.00005,19.08594 22.00005,15.53125 L22.00005,6.46875 C22.00005,2.91797 19.08599,0 15.5313,0 L6.4688,0 Z M6.4688,2 L15.5313,2 C18.00396,2 20.00005,3.99609 20.00005,6.46875 L20.00005,15.53125 C20.00005,18.00391 18.00396,20 15.5313,20 L6.4688,20 C3.99614,20 2.00005,18.00391 2.00005,15.53125 L2.00005,6.46875 C2.00005,3.99609 3.99614,2 6.4688,2 Z M16.9063,4.1875 C16.402394,4.1875 16.00005,4.589844 16.00005,5.09375 C16.00005,5.597656 16.402394,6 16.9063,6 C17.410206,6 17.81255,5.597656 17.81255,5.09375 C17.81255,4.589844 17.410206,4.1875 16.9063,4.1875 Z M11.00005,5 C7.69927,5 5.00005,7.69922 5.00005,11 C5.00005,14.30078 7.69927,17 11.00005,17 C14.30083,17 17.00005,14.30078 17.00005,11 C17.00005,7.69922 14.30083,5 11.00005,5 Z M11.00005,7 C13.22271,7 15.00005,8.77734 15.00005,11 C15.00005,13.22266 13.22271,15 11.00005,15 C8.77739,15 7.00005,13.22266 7.00005,11 C7.00005,8.77734 8.77739,7 11.00005,7 Z" id="Shape"></path>
            </g>
        </g>
    </g>
</svg>