<?xml version="1.0" encoding="UTF-8"?>
<svg width="22px" height="22px" viewBox="0 0 22 22" version="1.1" xmlns="http://www.w3.org/2000/svg" xmlns:xlink="http://www.w3.org/1999/xlink">
    <!-- Generator: sketchtool 51.2 (57519) - http://www.bohemiancoding.com/sketch -->
    <title>55947274-F19A-4F15-99E3-994CDECE5CB7</title>
    <desc>Created with sketchtool.</desc>
    <defs></defs>
    <g id="Symbols" stroke="none" stroke-width="1" fill="none" fill-rule="evenodd">
        <g id="Icons/Black-Icons/LinkedIn" fill="#1A181B" fill-rule="nonzero">
            <g id="LinkedIn">
                <path d="M2.5,0 C1.13281,0 0,1.13281 0,2.5 L0,19.5 C0,20.86719 1.13281,22 2.5,22 L19.5,22 C20.86719,22 22,20.86719 22,19.5 L22,2.5 C22,1.13281 20.86719,0 19.5,0 L2.5,0 Z M2.5,2 L19.5,2 C19.785156,2 20,2.214844 20,2.5 L20,19.5 C20,19.785156 19.785156,20 19.5,20 L2.5,20 C2.214844,20 2,19.785156 2,19.5 L2,2.5 C2,2.214844 2.214844,2 2.5,2 Z M5.4375,3.71875 C4.488281,3.71875 3.71875,4.488281 3.71875,5.4375 C3.71875,6.386719 4.488281,7.15625 5.4375,7.15625 C6.386719,7.15625 7.15625,6.386719 7.15625,5.4375 C7.15625,4.488281 6.386719,3.71875 5.4375,3.71875 Z M14.46875,8.28125 C13.03516,8.28125 12.08203,9.066406 11.6875,9.8125 L11.625,9.8125 L11.625,8.5 L8.8125,8.5 L8.8125,18 L11.75,18 L11.75,13.3125 C11.75,12.07422 11.996094,10.875 13.53125,10.875 C15.04297,10.875 15.0625,12.27344 15.0625,13.375 L15.0625,18 L18,18 L18,12.78125 C18,10.22656 17.457031,8.28125 14.46875,8.28125 Z M3.99995,8.5 L3.99995,18 L6.9687,18 L6.9687,8.5 L3.99995,8.5 Z" id="Shape"></path>
            </g>
        </g>
    </g>
</svg>