<?xml version="1.0" encoding="UTF-8"?>
<svg width="182px" height="44px" viewBox="0 0 182 44" version="1.1" xmlns="http://www.w3.org/2000/svg" xmlns:xlink="http://www.w3.org/1999/xlink">
    <!-- Generator: sketchtool 51.2 (57519) - http://www.bohemiancoding.com/sketch -->
    <title>D97153F2-ACA4-4CF4-BC0F-6D92B6F86E1E</title>
    <desc>Created with sketchtool.</desc>
    <defs></defs>
    <g id="Symbols" stroke="none" stroke-width="1" fill="none" fill-rule="evenodd">
        <g id="Page-Elements/Footer---120px" transform="translate(-120.000000, -44.000000)" fill="#FF4365">
            <g id="Logo/Logo_Color_Symbol+Text@1x" transform="translate(120.000000, 44.000000)">
                <g id="Group-2" stroke-width="1">
                    <path d="M18.9909336,4.83519894 L8.75306474,15.1311401 C3.08192824,20.8280706 3.08493967,30.0538832 8.75306555,35.7403498 C14.4168822,41.4225165 23.593532,41.4194978 29.2536601,35.733598 C34.9180719,30.0434183 34.9150602,20.8176058 29.2464734,15.1306766 L18.9909336,4.83519894 Z M20.4066386,0.588537416 L32.0799287,12.3072866 C39.3033428,19.554074 39.3071785,31.304081 32.0885016,38.5555961 C24.8655465,45.8114388 13.1477456,45.8152935 5.92007055,38.5642017 C-1.30334296,31.3174149 -1.30717832,19.567408 5.91149897,12.3158924 L17.5714718,0.589791782 C18.3529373,-0.196106654 19.6244779,-0.196669223 20.4066386,0.588537416 Z" id="Shape" fill-rule="nonzero"></path>
                    <path d="M15.3819182,6.1587556 C16.3149222,5.34165659 17.3195601,4.46182252 18.395832,3.51925339 C20.7263039,5.92432381 22,8.65423674 22,11.5465708 L22,15 C22,16.1045695 21.1045695,17 20,17 C18.8954305,17 18,16.1045695 18,15 L18,11.5465708 C18,9.73035229 17.1243347,7.90148414 15.3819182,6.1587556 Z" id="Combined-Shape"></path>
                    <path d="M22.9999998,27.7142855 L22.9999998,23.4285715 C22.9999998,21.0364218 20.7192074,19 17.7999997,19 C16.2062743,19 14.9999996,20.0770309 14.9999998,21.2857138 L14.9999998,27.7142855 C14.9999998,28.9229679 16.2062753,29.9999999 17.7999999,30 L20.1999999,30 C21.7937239,30 22.9999998,28.9229682 22.9999998,27.7142855 Z M26.9999998,27.7142855 C26.9999998,31.239473 23.9082087,34 20.1999999,34 L17.7999999,34 C14.0917899,33.9999999 10.9999998,31.239472 10.9999998,27.7142855 L10.9999998,21.2857142 C10.9999992,17.7605265 14.0917892,15 17.7999997,15 C22.8336925,15 26.9999998,18.7199172 26.9999998,23.4285715 L26.9999998,27.7142855 Z" id="Shape" fill-rule="nonzero"></path>
                </g>
                <path d="M73.8298447,21.9795918 C73.8298447,25.0000151 73.325986,27.6326418 72.3182534,29.877551 C71.3105209,32.1224602 69.771336,33.870742 67.7006527,35.122449 C65.6299694,36.3741559 63.0347519,37 59.9149223,37 C56.7398746,37 54.1308527,36.3741559 52.0877785,35.122449 C50.0447043,33.870742 48.5193238,32.1156576 47.5115913,29.8571429 C46.5038587,27.5986282 46,24.9591988 46,21.9387755 C46,18.9455633 46.5038587,16.3265418 47.5115913,14.0816327 C48.5193238,11.8367235 50.0516065,10.0952443 52.1084853,8.85714286 C54.165364,7.61904143 56.781288,7 59.9563358,7 C63.0761653,7 65.6644807,7.61904143 67.7213594,8.85714286 C69.7782382,10.0952443 71.3105209,11.8367235 72.3182534,14.0816327 C73.325986,16.3265418 73.8298447,18.9591686 73.8298447,21.9795918 Z M51.590817,21.9795918 C51.590817,25.2721253 52.2603279,27.8571335 53.5993698,29.7346939 C54.9384117,31.6122543 57.0435748,32.5510204 59.9149223,32.5510204 C62.8690972,32.5510204 64.9949669,31.6122543 66.2925951,29.7346939 C67.5902233,27.8571335 68.2390277,25.2721253 68.2390277,21.9795918 C68.2390277,18.6870584 67.5902233,16.1020502 66.2925951,14.2244898 C64.9949669,12.3469294 62.8829016,11.4081633 59.9563358,11.4081633 C57.0573792,11.4081633 54.9384117,12.3469294 53.5993698,14.2244898 C52.2603279,16.1020502 51.590817,18.6870584 51.590817,21.9795918 Z M77.2887689,36.5918367 L77.2887689,7.44897959 L82.5896917,7.44897959 L82.5896917,32.1836735 L94.9309025,32.1836735 L94.9309025,36.5918367 L77.2887689,36.5918367 Z M118.329507,36.5918367 L115.637632,28.877551 L104.497412,28.877551 L101.84695,36.5918367 L96.2147198,36.5918367 L107.065046,7.32653061 L113.111411,7.32653061 L123.961738,36.5918367 L118.329507,36.5918367 Z M114.270988,24.3877551 L111.703354,16.877551 C111.592917,16.5238078 111.427265,16.0136088 111.206392,15.3469388 C110.985519,14.6802688 110.778454,14.0000035 110.58519,13.3061224 C110.391926,12.6122414 110.226274,12.0340159 110.088229,11.5714286 C109.950183,12.14286 109.777629,12.7823094 109.57056,13.4897959 C109.363492,14.1972824 109.170231,14.8639424 108.990772,15.4897959 C108.811313,16.1156494 108.666367,16.5782298 108.555931,16.877551 L105.946883,24.3877551 L114.270988,24.3877551 Z M131.371146,36.5918367 L126.15305,36.5918367 L126.15305,7.44897959 L142.925501,7.44897959 L142.925501,11.8163265 L131.371146,11.8163265 L131.371146,20.3877551 L142.138645,20.3877551 L142.138645,24.755102 L131.371146,24.755102 L131.371146,36.5918367 Z M157.321179,36.5918367 L144.897142,36.5918367 L144.897142,33.6122449 L148.458699,32.3061224 L148.458699,11.7755102 L144.897142,10.4285714 L144.897142,7.44897959 L157.321179,7.44897959 L157.321179,10.4285714 L153.759622,11.7755102 L153.759622,32.3061224 L157.321179,33.6122449 L157.321179,36.5918367 Z M173.510241,11.4489796 C170.832157,11.4489796 168.7477,12.3945484 167.256808,14.2857143 C165.765916,16.1768802 165.020482,18.768691 165.020482,22.0612245 C165.020482,25.380969 165.710699,27.9659771 167.091155,29.8163265 C168.47161,31.6666759 170.59748,32.5918367 173.468827,32.5918367 C174.711237,32.5918367 175.932922,32.4625863 177.133919,32.2040816 C178.334915,31.9455769 179.570404,31.5986416 180.840423,31.1632653 L180.840423,35.6122449 C179.625622,36.1020433 178.403937,36.4557812 177.175332,36.6734694 C175.946727,36.8911576 174.531781,37 172.930452,37 C169.89345,37 167.381059,36.3809586 165.393203,35.1428571 C163.405347,33.9047557 161.928282,32.1632765 160.961963,29.9183673 C159.995644,27.6734582 159.512492,25.0408314 159.512492,22.0204082 C159.512492,19.081618 160.050861,16.4898071 161.127616,14.244898 C162.204372,11.9999888 163.78497,10.2381016 165.869458,8.95918367 C167.953945,7.68026571 170.500848,7.04081633 173.510241,7.04081633 C175.001133,7.04081633 176.471296,7.20408 177.920774,7.53061224 C179.370253,7.85714449 180.729981,8.3333302 182,8.95918367 L180.177808,13.244898 C179.128662,12.7823106 178.04502,12.3673488 176.926851,12 C175.808682,11.6326512 174.669823,11.4489796 173.510241,11.4489796 Z" id="OlaFic"></path>
            </g>
        </g>
    </g>
</svg>