<?xml version="1.0" encoding="UTF-8"?>
<svg width="26px" height="22px" viewBox="0 0 26 22" version="1.1" xmlns="http://www.w3.org/2000/svg" xmlns:xlink="http://www.w3.org/1999/xlink">
    <!-- Generator: sketchtool 51.2 (57519) - http://www.bohemiancoding.com/sketch -->
    <title>CC68B4BA-5028-4D76-9750-F2AAADE0A6AB</title>
    <desc>Created with sketchtool.</desc>
    <defs></defs>
    <g id="Symbols" stroke="none" stroke-width="1" fill="none" fill-rule="evenodd">
        <g id="Icons/Black-Icons/News" transform="translate(0.000000, -1.000000)" fill="#1A181B" fill-rule="nonzero">
            <g id="News" transform="translate(0.000000, 1.000000)">
                <path d="M0,0 L0,18 C0,20.21094 1.78906,22 4,22 L22,22 C24.21094,22 26,20.21094 26,18 L26,7 L20,7 L20,0 L0,0 Z M2,2 L18,2 L18,18 C18,18.730469 18.222656,19.41016 18.5625,20 L4,20 C2.80859,20 2,19.191406 2,18 L2,2 Z M4,4 L4,9 L16,9 L16,4 L4,4 Z M6,6 L14,6 L14,7 L6,7 L6,6 Z M20,9 L24,9 L24,18 C24,19.19141 23.191406,20 22,20 C20.80859,20 20,19.191406 20,18 L20,9 Z M4,10 L4,12 L9,12 L9,10 L4,10 Z M11,10 L11,12 L16,12 L16,10 L11,10 Z M4,13 L4,15 L9,15 L9,13 L4,13 Z M11,13 L11,15 L16,15 L16,13 L11,13 Z M4,16 L4,18 L9,18 L9,16 L4,16 Z M11,16 L11,18 L16,18 L16,16 L11,16 Z" id="Shape"></path>
            </g>
        </g>
    </g>
</svg>