<svg xmlns="http://www.w3.org/2000/svg" width="24" height="24" viewBox="0 0 24 24">
    <path fill="#2EC4B6" fill-rule="nonzero" d="M3 0a2.805 2.805 0 0 0-1.656.469L1.312.5h-.03C.026 1.473-.446 3.285.468 4.656v.032l1.219 1.687.562.813.813-.563 3.312-2.313.813-.562-.563-.813-1.094-1.593-.031-.032v-.03A3.422 3.422 0 0 0 3.562.061 3.062 3.062 0 0 0 3 0zm-.188 2a.932.932 0 0 1 .376 0c.242.059.48.219.687.469l.031.031.5.75L2.75 4.406l-.625-.875c-.281-.422-.168-.984.344-1.406A.872.872 0 0 1 2.813 2zm5.782 3.094L6.906 6.187 18.437 17.25A24.214 24.214 0 0 0 15 17c-2.293 0-4.383.285-5.969.781-.594.188-1.11.395-1.562.657L4.406 7.905 2.687 9l3.344 11.688c.07.687.5 1.226 1 1.593.543.403 1.207.692 2 .938 1.586.496 3.676.781 5.969.781s4.383-.285 5.969-.781c.793-.246 1.457-.535 2-.938.543-.402 1.03-1.004 1.03-1.78 0-.778-.487-1.38-1.03-1.782a4.18 4.18 0 0 0-.438-.281L8.594 5.094zM15 19c2.125 0 4.035.277 5.344.687.656.204 1.172.461 1.437.657.114.082.16.125.188.156a1.13 1.13 0 0 1-.188.156c-.265.196-.781.453-1.437.656-1.309.41-3.219.688-5.344.688-2.125 0-4.035-.277-5.344-.688-.656-.203-1.172-.46-1.437-.656a1.13 1.13 0 0 1-.188-.156 1.13 1.13 0 0 1 .188-.156c.265-.196.781-.453 1.437-.657C10.965 19.277 12.875 19 15 19z"/>
</svg>
