<?xml version="1.0" encoding="UTF-8"?>
<svg width="26px" height="22px" viewBox="0 0 26 22" version="1.1" xmlns="http://www.w3.org/2000/svg" xmlns:xlink="http://www.w3.org/1999/xlink">
    <!-- Generator: sketchtool 51.2 (57519) - http://www.bohemiancoding.com/sketch -->
    <title>3BF899BC-25C6-4C87-B083-B35057DAE09A</title>
    <desc>Created with sketchtool.</desc>
    <defs></defs>
    <g id="Symbols" stroke="none" stroke-width="1" fill="none" fill-rule="evenodd">
        <g id="Icons/Black-Icons/Twitter" transform="translate(2.000000, -1.000000)" stroke="#1A181B" stroke-width="2">
            <path d="M21.9999992,4.00958602 C21.1294411,4.64953641 20.1655538,5.13899719 19.1454539,5.45911592 C17.6693722,3.6903674 15.0969087,3.5035391 13.3996815,5.04182479 C12.4959007,5.86097309 11.9839452,7.0531944 11.9999998,8.30133441 L11.9999998,9.24873959 L12.0000001,9.24873958 C8.75514566,9.33642582 5.6836549,7.72528363 3.81818226,4.95699412 C3.81818226,4.95699412 0.181818792,13.4836407 8.36363659,17.2732615 L8.36363606,17.2732618 C6.4913907,18.5977058 4.26105444,19.261799 2,19.1680722 C10.1818178,23.9050981 20.1818173,19.1680722 20.1818173,8.27291262 L20.1818175,8.27296549 C20.1809835,8.00906956 20.1566398,7.74582451 20.1090999,7.48661919 L20.1091001,7.48661895 C21.0369273,6.53303669 21.6916727,5.32907419 22,4.0095851 L21.9999992,4.00958602 Z" id="Twitter-Black"></path>
        </g>
    </g>
</svg>