<svg xmlns="http://www.w3.org/2000/svg" width="20" height="22" viewBox="0 0 20 22">
    <path fill="#1A181B" fill-rule="nonzero" d="M10 0C6.145 0 3 3.145 3 7c0 2.41 1.23 4.55 3.094 5.813C2.527 14.342 0 17.883 0 22h2a7.98 7.98 0 0 1 3.813-6.813A4.537 4.537 0 0 0 10 18a4.537 4.537 0 0 0 4.188-2.813A7.98 7.98 0 0 1 18 22h2c0-4.117-2.527-7.656-6.094-9.188A7.024 7.024 0 0 0 17 7c0-3.855-3.145-7-7-7zm0 2c2.773 0 5 2.227 5 5s-2.227 5-5 5-5-2.227-5-5 2.227-5 5-5zm0 12c.82 0 1.602.117 2.344.344a2.485 2.485 0 0 1-4.688 0A7.985 7.985 0 0 1 10 14z"/>
</svg>
